<?xml version="1.0" encoding="UTF-8"?>
<svg id="Layer_1" data-name="Layer 1" xmlns="http://www.w3.org/2000/svg" viewBox="0 0 777.52 715.52">
  <defs>
    <style>
      .cls-1 {
        fill: #4859a8;
      }

      .cls-2 {
        fill: #fff;
      }

      .cls-3 {
        fill: #313f99;
      }
    </style>
  </defs>
  <g>
    <path class="cls-2" d="M68.49,240.71c-11.47-17.61-18.14-38.63-18.14-61.21,0-62.03,50.29-112.32,112.32-112.32s112.32,50.29,112.32,112.32c0,22.58-6.67,43.6-18.13,61.21,12.84,12.66,23.14,27.89,30.07,44.85,24.24-28.44,38.89-65.32,38.89-105.62,0-89.97-72.94-162.91-162.91-162.91S0,89.97,0,179.95c0,40.13,14.52,76.86,38.58,105.25,6.93-16.82,17.17-31.92,29.92-44.48Z"/>
    <path class="cls-2" d="M162.68,291.83c-24.54,0-47.24-7.88-65.72-21.23-12.05,12.09-20.77,27.5-24.69,44.73,25.91,17.38,57.09,27.52,90.63,27.52s64.13-9.96,89.9-27.04c-3.84-17.35-12.55-32.87-24.63-45.05-18.44,13.26-41.05,21.06-65.5,21.06Z"/>
  </g>
  <g>
    <ellipse class="cls-1" cx="199.18" cy="552.61" rx="149.22" ry="142.72"/>
    <g>
      <path class="cls-2" d="M104.76,613.38c-11.47-17.61-18.14-38.63-18.14-61.21,0-62.03,50.29-112.32,112.32-112.32s112.32,50.29,112.32,112.32c0,22.58-6.67,43.6-18.13,61.21,12.84,12.66,23.14,27.89,30.07,44.85,24.24-28.44,38.89-65.32,38.89-105.62,0-89.97-72.94-162.91-162.91-162.91S36.26,462.63,36.26,552.61c0,40.13,14.52,76.86,38.58,105.25,6.93-16.82,17.17-31.92,29.92-44.48Z"/>
      <path class="cls-2" d="M198.95,664.49c-24.54,0-47.24-7.88-65.72-21.23-12.05,12.09-20.77,27.5-24.69,44.73,25.91,17.38,57.09,27.52,90.63,27.52s64.13-9.96,89.9-27.04c-3.84-17.35-12.55-32.87-24.63-45.05-18.44,13.26-41.05,21.06-65.5,21.06Z"/>
    </g>
  </g>
  <path class="cls-3" d="M606.09,0c-94.68,0-171.43,76.75-171.43,171.43s76.75,171.43,171.43,171.43,171.43-76.75,171.43-171.43S700.77,0,606.09,0Zm0,300.88c-71.49,0-129.45-57.96-129.45-129.45s57.96-129.45,129.45-129.45,129.45,57.96,129.45,129.45-57.96,129.45-129.45,129.45Z"/>
</svg>