<?xml version="1.0" encoding="UTF-8"?>
<svg id="Layer_1" data-name="Layer 1" xmlns="http://www.w3.org/2000/svg" viewBox="0 0 777.26 715.08">
  <defs>
    <style>
      .cls-1 {
        fill: #4859a8;
      }

      .cls-2 {
        fill: #fff;
      }

      .cls-3 {
        fill: #313f99;
      }
    </style>
  </defs>
  <g>
    <path class="cls-2" d="M68.49,240.28c-11.47-17.61-18.14-38.63-18.14-61.21,0-62.03,50.29-112.32,112.32-112.32s112.32,50.29,112.32,112.32c0,22.58-6.67,43.6-18.13,61.21,12.84,12.66,23.14,27.89,30.07,44.85,24.24-28.44,38.89-65.32,38.89-105.62,0-89.97-72.94-162.91-162.91-162.91S0,89.53,0,179.51c0,40.13,14.52,76.86,38.58,105.25,6.93-16.82,17.17-31.92,29.92-44.48Z"/>
    <path class="cls-2" d="M162.68,291.39c-24.54,0-47.24-7.88-65.72-21.23-12.05,12.09-20.77,27.5-24.69,44.73,25.91,17.38,57.09,27.52,90.63,27.52s64.13-9.96,89.9-27.04c-3.84-17.35-12.55-32.87-24.63-45.05-18.44,13.26-41.05,21.06-65.5,21.06Z"/>
  </g>
  <g>
    <ellipse class="cls-1" cx="199.18" cy="552.17" rx="149.22" ry="142.72"/>
    <g>
      <path class="cls-2" d="M104.76,612.94c-11.47-17.61-18.14-38.63-18.14-61.21,0-62.03,50.29-112.32,112.32-112.32s112.32,50.29,112.32,112.32c0,22.58-6.67,43.6-18.13,61.21,12.84,12.66,23.14,27.89,30.07,44.85,24.24-28.44,38.89-65.32,38.89-105.62,0-89.97-72.94-162.91-162.91-162.91S36.26,462.19,36.26,552.17c0,40.13,14.52,76.86,38.58,105.25,6.93-16.82,17.17-31.92,29.92-44.48Z"/>
      <path class="cls-2" d="M198.95,664.05c-24.54,0-47.24-7.88-65.72-21.23-12.05,12.09-20.77,27.5-24.69,44.73,25.91,17.38,57.09,27.52,90.63,27.52s64.13-9.96,89.9-27.04c-3.84-17.35-12.55-32.87-24.63-45.05-18.44,13.26-41.05,21.06-65.5,21.06Z"/>
    </g>
  </g>
  <g>
    <path class="cls-2" d="M500.42,246.26c-15.13-21.16-24.04-47.07-24.04-75.05,0-71.4,57.96-129.28,129.45-129.28s129.45,57.88,129.45,129.28c0,27.99-8.91,53.89-24.04,75.05h48.7c11.09-22.66,17.32-48.13,17.32-75.05C777.26,76.65,700.51,0,605.83,0s-171.43,76.65-171.43,171.21c0,26.92,6.23,52.39,17.32,75.05h48.7Z"/>
    <path class="cls-3" d="M711.24,246.26c-23.48,32.83-61.94,54.23-105.41,54.23s-81.94-21.4-105.41-54.23h-48.7c27.85,56.93,86.39,96.15,154.11,96.15s126.26-39.22,154.11-96.15h-48.7Z"/>
  </g>
</svg>