<?xml version="1.0" encoding="UTF-8"?>
<svg id="Layer_1" data-name="Layer 1" xmlns="http://www.w3.org/2000/svg" viewBox="0 0 325.82 325.82">
  <defs>
    <style>
      .cls-1 {
        fill: #4859a8;
      }

      .cls-2 {
        fill: #fff;
      }
    </style>
  </defs>
  <ellipse class="cls-1" cx="162.91" cy="162.91" rx="149.22" ry="142.72"/>
  <g>
    <path class="cls-2" d="M68.49,223.68c-11.47-17.61-18.14-38.63-18.14-61.21,0-62.03,50.29-112.32,112.32-112.32s112.32,50.29,112.32,112.32c0,22.58-6.67,43.6-18.13,61.21,12.84,12.66,23.14,27.89,30.07,44.85,24.24-28.44,38.89-65.32,38.89-105.62C325.83,72.94,252.89,0,162.91,0S0,72.94,0,162.91c0,40.13,14.52,76.86,38.58,105.25,6.93-16.82,17.17-31.92,29.92-44.48h-.01Z"/>
    <path class="cls-2" d="M162.68,274.8c-24.54,0-47.24-7.88-65.72-21.23-12.05,12.09-20.77,27.5-24.69,44.73,25.91,17.38,57.09,27.52,90.63,27.52s64.13-9.96,89.9-27.04c-3.84-17.35-12.55-32.87-24.63-45.05-18.44,13.26-41.05,21.06-65.5,21.06h.01Z"/>
  </g>
</svg>