<?xml version="1.0" encoding="UTF-8"?>
<svg xmlns="http://www.w3.org/2000/svg" xmlns:xlink="http://www.w3.org/1999/xlink" viewBox="0 0 48 48" width="48px" height="48px">
<g id="surface170634877">
<path style=" stroke:none;fill-rule:nonzero;fill:rgb(100%,100%,100%);fill-opacity:1;" d="M 17.828125 9 C 9.640625 9 9 9.640625 9 17.828125 L 9 30.167969 C 9 38.359375 9.640625 39 17.828125 39 L 30.167969 39 C 38.359375 39 39 38.359375 39 30.167969 L 39 17.828125 C 39 9.640625 38.359375 9 30.167969 9 Z M 15.875 12 L 32.125 12 C 35.71875 12 36 12.28125 36 15.875 L 36 32.125 C 36 35.71875 35.71875 36 32.125 36 L 15.875 36 C 12.28125 36 12 35.71875 12 32.125 L 12 15.875 C 12 12.28125 12.28125 12 15.875 12 Z M 16.875 13.878906 C 15.65625 13.878906 14.664062 14.867188 14.664062 16.089844 C 14.664062 17.308594 15.652344 18.300781 16.875 18.300781 C 18.09375 18.300781 19.085938 17.308594 19.085938 16.089844 C 19.085938 14.871094 18.09375 13.878906 16.875 13.878906 Z M 28.449219 19.742188 C 26.605469 19.742188 25.367188 20.753906 24.859375 21.714844 L 24.808594 21.714844 L 24.808594 20.046875 L 21.171875 20.046875 L 21.171875 32.25 L 24.960938 32.25 L 24.960938 26.210938 C 24.960938 24.621094 25.265625 23.078125 27.238281 23.078125 C 29.183594 23.078125 29.207031 24.902344 29.207031 26.316406 L 29.207031 32.25 L 33 32.25 L 33 25.554688 C 33 22.269531 32.289062 19.742188 28.449219 19.742188 Z M 14.980469 20.046875 L 14.980469 32.25 L 18.773438 32.25 L 18.773438 20.046875 Z M 14.980469 20.046875 "/>
</g>
</svg>
