<?xml version="1.0" encoding="UTF-8"?>
<svg id="Layer_1" data-name="Layer 1" xmlns="http://www.w3.org/2000/svg" viewBox="0 0 406.21 406.21">
  <defs>
    <style>
      .cls-1 {
        fill: #fff;
      }
    </style>
  </defs>
  <path class="cls-1" d="M77.6,255.69c-6.81-16.23-10.57-34.04-10.57-52.74,0-75.35,61.09-136.44,136.44-136.44s136.44,61.09,136.44,136.44c0,18.7-3.76,36.52-10.57,52.74,18.68,14.77,34.7,32.76,47.23,53.12,18.81-30.79,29.65-66.98,29.65-105.7C406.21,90.93,315.28,0,203.11,0S0,90.93,0,203.11c0,38.97,10.98,75.36,30.01,106.28,12.58-20.6,28.73-38.79,47.59-53.7Z"/>
  <path class="cls-1" d="M203.11,406.21c47.84,0,91.8-16.55,126.51-44.22-8.81-20.9-22.67-39.14-40.06-53.2-23.48,19.12-53.44,30.59-86.09,30.59s-62.3-11.35-85.73-30.3c-17.46,14.22-31.33,32.67-40.06,53.78,34.53,27.15,78.09,43.34,125.42,43.34Z"/>
</svg>